<svg xmlns="http://www.w3.org/2000/svg" viewBox="0 0 128 128" width="128" height="128">
  <rect width="128" height="128" rx="20" fill="#1a1a2e"/>
  <!-- Mane outer -->
  <circle cx="64" cy="62" r="36" fill="#c8860a"/>
  <!-- Mane spikes -->
  <ellipse cx="40" cy="42" rx="10" ry="14" fill="#c8860a" transform="rotate(-30 40 42)"/>
  <ellipse cx="28" cy="58" rx="10" ry="14" fill="#c8860a" transform="rotate(-10 28 58)"/>
  <ellipse cx="32" cy="78" rx="10" ry="12" fill="#c8860a" transform="rotate(20 32 78)"/>
  <ellipse cx="88" cy="42" rx="10" ry="14" fill="#c8860a" transform="rotate(30 88 42)"/>
  <ellipse cx="100" cy="58" rx="10" ry="14" fill="#c8860a" transform="rotate(10 100 58)"/>
  <ellipse cx="96" cy="78" rx="10" ry="12" fill="#c8860a" transform="rotate(-20 96 78)"/>
  <ellipse cx="64" cy="28" rx="10" ry="14" fill="#c8860a"/>
  <!-- Mane inner -->
  <ellipse cx="64" cy="62" rx="30" ry="34" fill="#e8a020"/>
  <!-- Ears -->
  <path d="M42 40 L34 22 L52 32Z" fill="#e8a020"/>
  <path d="M44 38 L38 26 L50 33Z" fill="#f5c842"/>
  <path d="M86 40 L94 22 L76 32Z" fill="#e8a020"/>
  <path d="M84 38 L90 26 L78 33Z" fill="#f5c842"/>
  <!-- Face -->
  <ellipse cx="64" cy="64" rx="26" ry="28" fill="#f5c842"/>
  <!-- Eyes -->
  <ellipse cx="53" cy="56" rx="6" ry="7" fill="white"/>
  <ellipse cx="75" cy="56" rx="6" ry="7" fill="white"/>
  <circle cx="54" cy="57" r="4" fill="#1a1a00"/>
  <circle cx="76" cy="57" r="4" fill="#1a1a00"/>
  <circle cx="55" cy="55" r="1.5" fill="white"/>
  <circle cx="77" cy="55" r="1.5" fill="white"/>
  <!-- Nose -->
  <path d="M60 67 Q64 65 68 67 Q64 72 60 67Z" fill="#c05030"/>
  <!-- Mouth -->
  <path d="M57 72 Q64 78 71 72" stroke="#c05030" stroke-width="1.5" fill="none" stroke-linecap="round"/>
  <!-- Whisker dots -->
  <circle cx="48" cy="70" r="1.5" fill="#c8860a"/>
  <circle cx="48" cy="74" r="1.5" fill="#c8860a"/>
  <circle cx="80" cy="70" r="1.5" fill="#c8860a"/>
  <circle cx="80" cy="74" r="1.5" fill="#c8860a"/>
</svg>
